<svg width="24" height="24" viewBox="0 0 24 24" fill="none" xmlns="http://www.w3.org/2000/svg">
<path id="Shape" fill-rule="evenodd" clip-rule="evenodd" d="M12 0C8.741 0 8.333 0.014 7.053 0.072C2.695 0.272 0.273 2.69 0.073 7.052C0.014 8.333 0 8.741 0 12C0 15.259 0.014 15.668 0.072 16.948C0.272 21.306 2.69 23.728 7.052 23.928C8.333 23.986 8.741 24 12 24C15.259 24 15.668 23.986 16.948 23.928C21.302 23.728 23.73 21.31 23.927 16.948C23.986 15.668 24 15.259 24 12C24 8.741 23.986 8.333 23.928 7.053C23.732 2.699 21.311 0.273 16.949 0.073C15.668 0.014 15.259 0 12 0ZM12 2.16299C15.204 2.16299 15.584 2.17499 16.85 2.23299C20.102 2.38099 21.621 3.92399 21.769 7.15199C21.827 8.41699 21.838 8.79699 21.838 12.001C21.838 15.206 21.826 15.585 21.769 16.85C21.62 20.075 20.105 21.621 16.85 21.769C15.584 21.827 15.206 21.839 12 21.839C8.79599 21.839 8.41599 21.827 7.15099 21.769C3.89099 21.62 2.37999 20.07 2.23199 16.849C2.17399 15.584 2.16199 15.205 2.16199 12C2.16199 8.79599 2.17499 8.41699 2.23199 7.15099C2.38099 3.92399 3.89599 2.37999 7.15099 2.23199C8.41699 2.17499 8.79599 2.16299 12 2.16299ZM5.83801 12C5.83801 8.59699 8.59701 5.83799 12 5.83799C15.403 5.83799 18.162 8.59699 18.162 12C18.162 15.404 15.403 18.163 12 18.163C8.59701 18.163 5.83801 15.403 5.83801 12ZM12 16C9.791 16 8 14.21 8 12C8 9.791 9.791 8 12 8C14.209 8 16 9.791 16 12C16 14.21 14.209 16 12 16ZM16.965 5.59508C16.965 4.80008 17.61 4.15508 18.406 4.15508C19.201 4.15508 19.845 4.80008 19.845 5.59508C19.845 6.39008 19.201 7.03508 18.406 7.03508C17.61 7.03508 16.965 6.39008 16.965 5.59508Z" fill="#FEFCF7"/>
</svg>
